<?xml version="1.0" standalone="no"?>
<svg viewBox="0 0 200 200" xmlns="http://www.w3.org/2000/svg">
  <path fill="#FF0066" d="M37.5,-66.8C49.5,-58,60.8,-49.8,67.6,-38.8C74.3,-27.8,76.5,-13.9,78.6,1.2C80.7,16.3,82.8,32.6,76.4,44.3C70,55.9,55.1,62.8,41,70.2C26.8,77.6,13.4,85.4,-0.4,86.1C-14.2,86.7,-28.4,80.2,-41.9,72.5C-55.5,64.8,-68.4,55.9,-73,43.6C-77.6,31.3,-73.9,15.7,-73.4,0.3C-72.9,-15.1,-75.6,-30.1,-69.3,-39.6C-63.1,-49.1,-48,-53,-35,-61.3C-21.9,-69.5,-11,-82.1,0.9,-83.7C12.7,-85.2,25.5,-75.7,37.5,-66.8Z" transform="translate(100 100)" />
</svg>
