<?xml version="1.0" encoding="utf-8"?>
<svg viewBox="360.678 131.645 27.72 21.905" width="27.72px" height="21.905px" xmlns="http://www.w3.org/2000/svg">
  <g id="Icon-Blue-Copy" transform="matrix(1, 0, 0, 1, 360.609589, 131.571091)">
    <path d="M15.8750688,7.50608477 C21.1573073,4.14730475 27.7886168,3.50239999 27.7886168,3.50239999 C27.7886168,3.50239999 20.7528955,11.4997096 19.0326867,15.1945655 C18.5015045,16.8063672 19.6135162,18.1175255 19.6135162,18.1175255 C19.6135162,18.1175255 16.5318653,14.6660391 15.8750688,7.50608477 Z" id="Path-7" fill="#1BA0E2"/>
    <path d="M18.162138,6.24397491 C17.3878953,6.61481372 16.6181339,7.03359719 15.8750688,7.50608477 C16.2091491,11.1480034 17.1706021,13.8304452 18.0347649,15.5872293 C18.4974096,16.4047306 18.9374198,17.0887931 19.2687154,17.5775849 C19.1008028,17.2517084 18.9278703,16.7972915 18.8946484,16.2674161 C18.4465048,14.5531906 18.0359014,11.5237307 18.162138,6.24397491 Z" id="Path-7-Copy" fill="#0D7FCC"/>
    <path d="M11.1392242,10.6306432 C11.1392242,10.6306432 10.7916211,9.40930137 10.6718684,9.05703715 C10.3493019,8.10817672 10.0190832,7.14347468 10.0190831,5.49697918 C10.0190831,3.2392226 13.8646282,0.830360977 16.2083894,0.0738834971 C15.5726728,8.29080802 16.4960847,10.8058271 17.3467186,13.537055 C19.3596742,20.2576903 23.9571046,21.2294722 24.4111443,21.6850544 C23.2389565,21.4317473 23.9079977,21.9785645 23.9079977,21.9785645 C23.9079977,21.9785645 22.0366239,20.676552 18.2686172,19.6106221 C14.5006105,18.5446922 11.5607948,18.381561 9.76233612,17.3600837 C8.37731138,16.3196574 8.33271646,15.4721062 7.67451502,14.9032056 C5.51226604,13.0343176 0.0684652899,12.2483736 0.0684652899,12.2483736 L4.75199664,13.0114999 C4.75199664,13.0114999 5.39587343,13.0114997 6.15578398,12.7385777 C6.31936247,12.7171833 6.84077993,12.1226001 7.97022445,12.498467 C8.43508849,12.6515676 8.30440909,12.8180273 9.63493268,13.1922403 C11.3211407,13.6664904 11.1392242,10.6306432 11.1392242,10.6306432 Z" id="Path-6" fill="#1BA0E2"/>
  </g>
</svg>